<svg width="499" height="595" viewBox="0 0 499 595" fill="none" xmlns="http://www.w3.org/2000/svg">
<path fill-rule="evenodd" clip-rule="evenodd" d="M9.02577 155.553C0.877475 160.258 0.877478 167.885 9.02578 172.59L235.366 303.267C238.199 304.903 241.643 305.97 245.274 306.468C244.71 308.62 244.404 310.764 244.404 312.814V576.753C244.404 586.369 251.154 590.266 259.482 585.459L482.346 456.788C490.673 451.98 497.424 440.287 497.424 430.671V166.733C497.424 165.896 497.373 165.103 497.274 164.355C497.391 161.187 495.355 157.998 491.168 155.58L264.828 24.9023C256.679 20.1979 243.468 20.1979 235.32 24.9023L9.02577 155.553Z" fill="#00b8bd"/>
<path d="M9.02578 172.59L8.65078 173.239L9.02578 172.59ZM9.02577 155.553L8.65077 154.904L8.65077 154.904L9.02577 155.553ZM235.366 303.267L235.741 302.618L235.741 302.618L235.366 303.267ZM245.274 306.468L245.999 306.658L246.214 305.84L245.376 305.725L245.274 306.468ZM259.482 585.459L259.857 586.108L259.857 586.108L259.482 585.459ZM482.346 456.788L481.971 456.139L481.971 456.139L482.346 456.788ZM497.274 164.355L496.525 164.328L496.523 164.391L496.531 164.453L497.274 164.355ZM491.168 155.58L491.543 154.93L491.543 154.93L491.168 155.58ZM264.828 24.9023L264.453 25.5519L264.453 25.5519L264.828 24.9023ZM235.32 24.9023L234.945 24.2528L234.945 24.2528L235.32 24.9023ZM9.40078 171.94C5.46326 169.667 3.66455 166.792 3.66455 164.072C3.66455 161.351 5.46326 158.476 9.40077 156.203L8.65077 154.904C4.43999 157.335 2.16455 160.626 2.16455 164.072C2.16455 167.517 4.43999 170.808 8.65078 173.239L9.40078 171.94ZM235.741 302.618L9.40078 171.94L8.65078 173.239L234.991 303.917L235.741 302.618ZM245.376 305.725C241.819 305.237 238.472 304.195 235.741 302.618L234.991 303.917C237.925 305.611 241.467 306.702 245.172 307.211L245.376 305.725ZM245.154 312.814C245.154 310.838 245.45 308.758 245.999 306.658L244.548 306.278C243.971 308.482 243.654 310.691 243.654 312.814H245.154ZM245.154 576.753V312.814H243.654V576.753H245.154ZM259.107 584.809C255.08 587.134 251.61 587.259 249.195 585.865C246.78 584.471 245.154 581.403 245.154 576.753H243.654C243.654 581.719 245.402 585.408 248.445 587.164C251.487 588.921 255.557 588.591 259.857 586.108L259.107 584.809ZM481.971 456.139L259.107 584.809L259.857 586.108L482.721 457.438L481.971 456.139ZM496.674 430.671C496.674 435.317 495.039 440.515 492.358 445.158C489.678 449.8 485.994 453.816 481.971 456.139L482.721 457.438C487.025 454.952 490.88 450.718 493.657 445.908C496.434 441.098 498.174 435.642 498.174 430.671H496.674ZM496.674 166.733V430.671H498.174V166.733H496.674ZM496.531 164.453C496.625 165.166 496.674 165.927 496.674 166.733H498.174C498.174 165.866 498.121 165.04 498.018 164.257L496.531 164.453ZM490.793 156.229C494.84 158.566 496.627 161.536 496.525 164.328L498.024 164.383C498.154 160.838 495.871 157.429 491.543 154.93L490.793 156.229ZM264.453 25.5519L490.793 156.229L491.543 154.93L265.203 24.2528L264.453 25.5519ZM235.695 25.5519C239.628 23.281 244.831 22.124 250.074 22.124C255.317 22.124 260.519 23.281 264.453 25.5519L265.203 24.2528C260.988 21.8193 255.51 20.624 250.074 20.624C244.637 20.624 239.16 21.8193 234.945 24.2528L235.695 25.5519ZM9.40077 156.203L235.695 25.5519L234.945 24.2528L8.65077 154.904L9.40077 156.203Z" fill="#00b8bd"/>
<mask id="mask0_3780_38739" style="mask-type:alpha" maskUnits="userSpaceOnUse" x="2" y="20" width="497" height="569">
<path fill-rule="evenodd" clip-rule="evenodd" d="M9.02675 155.552C0.878451 160.257 0.878455 167.884 9.02675 172.589L235.367 303.266C238.2 304.902 241.644 305.969 245.275 306.467C244.711 308.619 244.405 310.763 244.405 312.813V576.752C244.405 586.368 251.155 590.266 259.483 585.458L482.347 456.787C490.674 451.979 497.425 440.286 497.425 430.67V166.732C497.425 165.895 497.374 165.102 497.275 164.354C497.392 161.186 495.356 157.997 491.169 155.579L264.829 24.9014C256.68 20.1969 243.469 20.1969 235.321 24.9014L9.02675 155.552Z" fill="#71A407"/>
<path d="M9.02675 172.589L8.65175 173.238L8.65175 173.238L9.02675 172.589ZM9.02675 155.552L8.65175 154.903L8.65175 154.903L9.02675 155.552ZM235.367 303.266L235.742 302.617L235.742 302.617L235.367 303.266ZM245.275 306.467L246 306.657L246.215 305.839L245.377 305.724L245.275 306.467ZM259.483 585.458L259.108 584.808L259.108 584.808L259.483 585.458ZM482.347 456.787L481.972 456.138L481.972 456.138L482.347 456.787ZM497.275 164.354L496.526 164.327L496.524 164.39L496.532 164.452L497.275 164.354ZM491.169 155.579L491.544 154.929L491.544 154.929L491.169 155.579ZM264.829 24.9014L265.204 24.2518L265.204 24.2518L264.829 24.9014ZM235.321 24.9014L234.946 24.2518L234.946 24.2518L235.321 24.9014ZM9.40175 171.939C5.46424 169.666 3.66553 166.791 3.66553 164.071C3.66553 161.35 5.46424 158.475 9.40175 156.202L8.65175 154.903C4.44096 157.334 2.16553 160.625 2.16553 164.071C2.16553 167.516 4.44097 170.807 8.65175 173.238L9.40175 171.939ZM235.742 302.617L9.40175 171.939L8.65175 173.238L234.992 303.916L235.742 302.617ZM245.377 305.724C241.82 305.236 238.473 304.194 235.742 302.617L234.992 303.916C237.926 305.61 241.468 306.701 245.173 307.21L245.377 305.724ZM245.155 312.813C245.155 310.837 245.451 308.757 246 306.657L244.549 306.277C243.972 308.481 243.655 310.69 243.655 312.813H245.155ZM245.155 576.752V312.813H243.655V576.752H245.155ZM259.108 584.808C255.081 587.133 251.611 587.258 249.196 585.864C246.781 584.47 245.155 581.402 245.155 576.752H243.655C243.655 581.718 245.403 585.407 248.446 587.163C251.488 588.92 255.558 588.59 259.858 586.107L259.108 584.808ZM481.972 456.138L259.108 584.808L259.858 586.107L482.722 457.437L481.972 456.138ZM496.675 430.67C496.675 435.316 495.04 440.514 492.359 445.157C489.679 449.799 485.995 453.815 481.972 456.138L482.722 457.437C487.026 454.951 490.881 450.717 493.658 445.907C496.435 441.097 498.175 435.641 498.175 430.67H496.675ZM496.675 166.732V430.67H498.175V166.732H496.675ZM496.532 164.452C496.626 165.165 496.675 165.926 496.675 166.732H498.175C498.175 165.865 498.122 165.039 498.019 164.256L496.532 164.452ZM490.794 156.229C494.841 158.565 496.628 161.535 496.526 164.327L498.025 164.382C498.155 160.837 495.872 157.428 491.544 154.929L490.794 156.229ZM264.454 25.5509L490.794 156.229L491.544 154.929L265.204 24.2518L264.454 25.5509ZM235.696 25.5509C239.629 23.28 244.832 22.123 250.075 22.123C255.318 22.123 260.52 23.28 264.454 25.5509L265.204 24.2518C260.989 21.8183 255.511 20.623 250.075 20.623C244.638 20.623 239.161 21.8183 234.946 24.2518L235.696 25.5509ZM9.40175 156.202L235.696 25.5509L234.946 24.2518L8.65175 154.903L9.40175 156.202Z" fill="#00b8bd"/>
</mask>
<g mask="url(#mask0_3780_38739)">
<path d="M200.505 348.286C200.505 338.67 207.256 326.977 215.583 322.169L519.122 146.921C527.45 142.113 534.201 146.011 534.201 155.627L534.201 409.439C534.201 419.055 527.45 430.748 519.122 435.556L215.583 610.804C207.256 615.612 200.505 611.714 200.505 602.099L200.505 348.286Z" fill="#547907"/>
</g>
<path d="M9.02626 172.589L8.65126 173.238L8.65126 173.238L9.02626 172.589ZM9.02626 155.552L8.65126 154.903L8.65126 154.903L9.02626 155.552ZM235.367 303.266L234.992 303.916L234.992 303.916L235.367 303.266ZM245.274 306.467L246 306.657L246.214 305.839L245.376 305.724L245.274 306.467ZM259.482 585.458L259.857 586.107L259.857 586.107L259.482 585.458ZM482.346 456.787L481.971 456.138L481.971 456.138L482.346 456.787ZM497.275 164.354L496.525 164.327L496.523 164.39L496.531 164.452L497.275 164.354ZM491.168 155.579L490.793 156.229L490.793 156.229L491.168 155.579ZM264.828 24.9014L265.203 24.2518L265.203 24.2518L264.828 24.9014ZM235.321 24.9014L234.946 24.2518L234.946 24.2518L235.321 24.9014ZM9.40126 171.939C5.46375 169.666 3.66504 166.791 3.66504 164.071C3.66504 161.35 5.46375 158.475 9.40126 156.202L8.65126 154.903C4.44048 157.334 2.16504 160.625 2.16504 164.071C2.16504 167.516 4.44048 170.807 8.65126 173.238L9.40126 171.939ZM235.742 302.617L9.40126 171.939L8.65126 173.238L234.992 303.916L235.742 302.617ZM245.376 305.724C241.82 305.236 238.473 304.194 235.742 302.617L234.992 303.916C237.925 305.61 241.467 306.701 245.172 307.21L245.376 305.724ZM245.154 312.813C245.154 310.837 245.45 308.757 246 306.657L244.549 306.277C243.972 308.481 243.654 310.69 243.654 312.813H245.154ZM245.154 576.752V312.813H243.654V576.752H245.154ZM259.107 584.808C255.08 587.133 251.61 587.258 249.195 585.864C246.781 584.47 245.154 581.402 245.154 576.752H243.654C243.654 581.718 245.403 585.407 248.445 587.163C251.488 588.92 255.557 588.59 259.857 586.107L259.107 584.808ZM481.971 456.138L259.107 584.808L259.857 586.107L482.721 457.437L481.971 456.138ZM496.675 430.67C496.675 435.316 495.039 440.514 492.359 445.157C489.679 449.799 485.994 453.815 481.971 456.138L482.721 457.437C487.026 454.951 490.881 450.717 493.658 445.907C496.435 441.097 498.175 435.641 498.175 430.67H496.675ZM496.675 166.732V430.67H498.175V166.732H496.675ZM496.531 164.452C496.625 165.165 496.675 165.926 496.675 166.732H498.175C498.175 165.865 498.122 165.039 498.018 164.256L496.531 164.452ZM490.793 156.229C494.84 158.565 496.628 161.535 496.525 164.327L498.024 164.382C498.155 160.837 495.871 157.428 491.543 154.929L490.793 156.229ZM264.453 25.5509L490.793 156.229L491.543 154.929L265.203 24.2518L264.453 25.5509ZM235.696 25.5509C239.629 23.28 244.831 22.123 250.074 22.123C255.317 22.123 260.52 23.28 264.453 25.5509L265.203 24.2518C260.988 21.8183 255.511 20.623 250.074 20.623C244.638 20.623 239.161 21.8183 234.946 24.2518L235.696 25.5509ZM9.40126 156.202L235.696 25.5509L234.946 24.2518L8.65126 154.903L9.40126 156.202Z" fill="#00b8bd"/>
<path d="M256.804 316.076C256.804 306.46 250.053 294.767 241.725 289.96L16.0783 159.682C7.7507 154.874 0.999874 158.772 0.999873 168.388L0.999868 428.942C0.999867 438.558 7.7507 450.251 16.0783 455.059L241.725 585.336C250.053 590.144 256.804 586.247 256.804 576.631L256.804 316.076Z" fill="#00b8bd" stroke="#00b8bd" stroke-width="1.5"/>
<path fill-rule="evenodd" clip-rule="evenodd" d="M28.7424 206.792C28.489 207.912 28.355 209.153 28.355 210.507L28.355 411.156C28.355 420.772 35.1059 432.465 43.4334 437.273L218.681 538.452C220.034 539.233 221.346 539.785 222.594 540.119V540.658C222.594 543.135 224.333 544.139 226.478 542.901L229.875 540.939C232.02 539.701 233.759 536.689 233.759 534.212L233.759 422.143L233.759 422.138L233.759 329.097C233.759 319.481 227.008 307.789 218.681 302.981L43.4334 201.801C42.9276 201.509 42.4276 201.249 41.9345 201.021L39.8731 199.831C37.3748 198.388 33.3243 198.388 30.826 199.831L28.2789 201.301C25.7806 202.744 25.7806 205.082 28.2789 206.525L28.7424 206.792Z" fill="#00b8bd"/>
<mask id="mask1_3780_38739" style="mask-type:alpha" maskUnits="userSpaceOnUse" x="26" y="198" width="208" height="345">
<path fill-rule="evenodd" clip-rule="evenodd" d="M28.8223 206.454C28.5175 207.658 28.3555 209.011 28.3555 210.5L28.3555 412.859C28.3555 422.475 35.1063 434.167 43.4339 438.975L218.681 540.155C227.009 544.962 233.76 541.065 233.76 531.449L233.76 471.547L233.76 471.539L233.76 422.873L233.76 422.867L233.76 329.091C233.76 319.475 227.009 307.782 218.681 302.974L43.4339 201.795C42.9334 201.506 42.4385 201.248 41.9504 201.022L39.8861 199.83C37.3878 198.387 33.3373 198.387 30.8391 199.83L28.6172 201.113C26.119 202.555 26.119 204.894 28.6172 206.336L28.8223 206.454Z" fill="#141414"/>
</mask>
<g mask="url(#mask1_3780_38739)">
<rect width="227.481" height="15.8079" rx="5.22331" transform="matrix(-0.866025 -0.5 -0.866025 0.5 235.136 308.055)" fill="#141414"/>
</g>
<path d="M229.445 330.632C229.445 321.016 222.694 309.323 214.367 304.515L39.1195 203.336C30.7919 198.528 24.0411 202.426 24.0411 212.042L24.0411 414.4C24.0411 424.016 30.7919 435.708 39.1195 440.516L214.367 541.696C222.694 546.504 229.445 542.606 229.445 532.99L229.445 330.632Z" fill="white" stroke="#00b8bd" stroke-width="1.5"/>
<path fill-rule="evenodd" clip-rule="evenodd" d="M159.955 443.542C171.539 437.754 178.782 424.155 178.782 404.421C178.782 366.675 152.282 320.775 119.593 301.902C102.744 292.175 87.5397 291.525 76.7605 298.349L66.5003 304.272L68.9112 305.664C63.579 312.765 60.4818 322.892 60.4051 335.591L60.2544 335.671L60.4037 335.952C60.4036 335.993 60.4036 336.034 60.4036 336.075C60.4036 373.821 86.9035 419.721 119.593 438.594C130.599 444.948 140.903 447.429 149.73 446.483V449.445L159.955 443.542Z" fill="#141414"/>
<path d="M159.955 443.542L159.619 442.871C159.606 442.877 159.593 442.885 159.58 442.892L159.955 443.542ZM119.593 301.902L119.218 302.552L119.218 302.552L119.593 301.902ZM76.7605 298.349L77.1355 298.998C77.1443 298.993 77.153 298.988 77.1616 298.982L76.7605 298.349ZM66.5003 304.272L66.1253 303.623C65.8933 303.757 65.7503 304.004 65.7503 304.272C65.7503 304.54 65.8933 304.788 66.1253 304.922L66.5003 304.272ZM68.9112 305.664L69.5109 306.115C69.6398 305.943 69.6889 305.724 69.646 305.514C69.603 305.304 69.472 305.122 69.2862 305.015L68.9112 305.664ZM60.4051 335.591L60.7564 336.254C61.0002 336.124 61.1534 335.871 61.1551 335.595L60.4051 335.591ZM60.2544 335.671L59.9031 335.008C59.7273 335.101 59.5958 335.26 59.5374 335.451C59.479 335.641 59.4986 335.846 59.5918 336.022L60.2544 335.671ZM60.4037 335.952L61.1537 335.954C61.1539 335.831 61.1239 335.71 61.0663 335.601L60.4037 335.952ZM60.4036 336.075L61.1536 336.075V336.075H60.4036ZM119.593 438.594L119.218 439.243L119.218 439.243L119.593 438.594ZM149.73 446.483H150.48C150.48 446.27 150.39 446.067 150.232 445.925C150.073 445.783 149.862 445.715 149.65 445.737L149.73 446.483ZM149.73 449.445H148.98C148.98 449.713 149.123 449.96 149.355 450.094C149.587 450.228 149.873 450.228 150.105 450.094L149.73 449.445ZM178.032 404.421C178.032 423.99 170.858 437.256 159.619 442.871L160.29 444.213C172.22 438.252 179.532 424.32 179.532 404.421H178.032ZM119.218 302.552C135.422 311.907 150.134 327.991 160.796 346.459C171.459 364.928 178.032 385.71 178.032 404.421H179.532C179.532 385.385 172.855 364.345 162.095 345.709C151.336 327.073 136.453 310.771 119.968 301.253L119.218 302.552ZM77.1616 298.982C87.6208 292.362 102.51 292.905 119.218 302.552L119.968 301.253C102.978 291.444 87.4585 290.689 76.3593 297.715L77.1616 298.982ZM66.8753 304.922L77.1355 298.998L76.3855 297.699L66.1253 303.623L66.8753 304.922ZM69.2862 305.015L66.8753 303.623L66.1253 304.922L68.5362 306.314L69.2862 305.015ZM61.1551 335.595C61.2311 323.009 64.3008 313.053 69.5109 306.115L68.3114 305.214C62.8572 312.477 59.7325 322.774 59.6551 335.586L61.1551 335.595ZM60.6057 336.333L60.7564 336.254L60.0538 334.928L59.9031 335.008L60.6057 336.333ZM61.0663 335.601L60.917 335.319L59.5918 336.022L59.7411 336.304L61.0663 335.601ZM61.1536 336.075C61.1536 336.035 61.1536 335.994 61.1537 335.954L59.6537 335.951C59.6536 335.993 59.6536 336.034 59.6536 336.075H61.1536ZM119.968 437.944C103.764 428.589 89.052 412.505 78.3892 394.037C67.7265 375.568 61.1536 354.786 61.1536 336.075L59.6536 336.075C59.6536 355.111 66.3307 376.151 77.0902 394.787C87.8497 413.423 102.732 429.725 119.218 439.243L119.968 437.944ZM149.65 445.737C141.022 446.661 130.877 444.243 119.968 437.944L119.218 439.243C130.32 445.653 140.783 448.196 149.81 447.229L149.65 445.737ZM150.48 449.445V446.483H148.98V449.445H150.48ZM159.58 442.892L149.355 448.795L150.105 450.094L160.33 444.191L159.58 442.892Z" fill="#00b8bd"/>
<circle r="68.3996" transform="matrix(0.866025 0.5 -2.20305e-08 1 109.662 376.1)" fill="white" stroke="#00b8bd" stroke-width="1.5" stroke-linejoin="round"/>
<path d="M110.433 322.635L110.433 340.916" stroke="#00b8bd" stroke-width="1.5" stroke-linecap="round"/>
<path d="M110.433 411.283L110.433 429.565" stroke="#00b8bd" stroke-width="1.5" stroke-linecap="round"/>
<path d="M156.734 402.833L140.902 393.692" stroke="#00b8bd" stroke-width="1.5" stroke-linecap="round"/>
<path d="M79.9629 358.51L64.1305 349.369" stroke="#00b8bd" stroke-width="1.5" stroke-linecap="round"/>
<path d="M143.173 357.198L131.978 363.662" stroke="#00b8bd" stroke-width="1.5" stroke-linecap="round"/>
<path d="M88.8867 388.541L77.6915 395.005" stroke="#00b8bd" stroke-width="1.5" stroke-linecap="round"/>
<path d="M143.173 432.809L131.978 413.418" stroke="#00b8bd" stroke-width="1.5" stroke-linecap="round"/>
<path d="M88.8867 338.784L77.6915 319.393" stroke="#00b8bd" stroke-width="1.5" stroke-linecap="round"/>
<path fill-rule="evenodd" clip-rule="evenodd" d="M119.648 428.82C133.446 430.315 143.176 420.3 143.176 402.043C143.176 377.994 126.292 348.75 105.465 336.726C90.4052 328.031 77.4073 330.72 71.3633 341.968C71.1987 342.138 71.0474 342.329 70.9125 342.54L58.8943 361.335C58.1738 362.462 58.1398 363.896 58.806 365.055L93.551 425.531C94.15 426.574 95.2315 427.247 96.4315 427.324L119.648 428.82Z" fill="#00b8bd"/>
<path d="M119.648 428.82L119.729 428.074L119.713 428.072L119.696 428.071L119.648 428.82ZM105.465 336.726L105.84 336.076L105.465 336.726ZM71.3633 341.968L71.903 342.488L71.9749 342.414L72.0239 342.323L71.3633 341.968ZM70.9125 342.54L70.2806 342.136L70.2806 342.136L70.9125 342.54ZM58.8943 361.335L58.2624 360.931L58.2624 360.931L58.8943 361.335ZM58.806 365.055L59.4563 364.682L59.4563 364.682L58.806 365.055ZM93.551 425.531L94.2013 425.157L94.2013 425.157L93.551 425.531ZM96.4315 427.324L96.4797 426.576L96.4797 426.576L96.4315 427.324ZM142.426 402.043C142.426 411.048 140.026 417.915 136.03 422.335C132.051 426.738 126.415 428.799 119.729 428.074L119.567 429.565C126.68 430.336 132.808 428.137 137.143 423.341C141.461 418.564 143.926 411.295 143.926 402.043H142.426ZM105.09 337.375C115.363 343.306 124.705 353.514 131.481 365.25C138.257 376.987 142.426 390.181 142.426 402.043H143.926C143.926 389.856 139.653 376.404 132.78 364.5C125.908 352.596 116.395 342.17 105.84 336.076L105.09 337.375ZM72.0239 342.323C74.9431 336.89 79.5128 333.558 85.1578 332.608C90.8252 331.653 97.6627 333.087 105.09 337.375L105.84 336.076C98.2076 331.67 91.0162 330.1 84.9087 331.129C78.7787 332.161 73.8274 335.797 70.7026 341.613L72.0239 342.323ZM71.5444 342.944C71.6526 342.775 71.7731 342.623 71.903 342.488L70.8236 341.447C70.6244 341.653 70.4422 341.883 70.2806 342.136L71.5444 342.944ZM59.5261 361.739L71.5444 342.944L70.2806 342.136L58.2624 360.931L59.5261 361.739ZM59.4563 364.682C58.9293 363.765 58.9562 362.63 59.5261 361.739L58.2624 360.931C57.3913 362.293 57.3502 364.027 58.1557 365.429L59.4563 364.682ZM94.2013 425.157L59.4563 364.682L58.1557 365.429L92.9007 425.905L94.2013 425.157ZM96.4797 426.576C95.5305 426.515 94.6751 425.982 94.2013 425.157L92.9007 425.904C93.6249 427.165 94.9325 427.979 96.3833 428.073L96.4797 426.576ZM119.696 428.071L96.4797 426.576L96.3833 428.073L119.6 429.568L119.696 428.071Z" fill="#00b8bd"/>
<circle r="32.2828" transform="matrix(0.866025 0.5 -2.20305e-08 1 83.8166 391.127)" fill="white" stroke="#00b8bd" stroke-width="1.5" stroke-linejoin="round"/>
<rect width="162.959" height="31.5821" rx="14.0385" transform="matrix(-0.866025 -0.5 -0.866025 0.5 331.164 189.136)" fill="white" stroke="#00b8bd" stroke-width="1.5"/>
<rect width="144.154" height="14.7548" rx="7.37742" transform="matrix(-0.866025 -0.5 -0.866025 0.5 315.843 188.374)" fill="#00b8bd" stroke="#00b8bd" stroke-width="1.5"/>
<mask id="mask2_3780_38739" style="mask-type:alpha" maskUnits="userSpaceOnUse" x="191" y="0" width="113" height="196">
<rect width="130.13" height="130.13" transform="matrix(-0.866025 -0.5 -2.20305e-08 1 303.833 65.0654)" fill="#00b8bd"/>
</mask>
<g mask="url(#mask2_3780_38739)">
<path fill-rule="evenodd" clip-rule="evenodd" d="M289 188.871C296.13 183.179 300.424 173.009 300.424 159.201C300.424 128.029 278.54 90.125 251.545 74.5391C237.334 66.3346 224.54 65.9502 215.608 71.9734L215.606 71.9702L215.478 72.0617C215.216 72.2416 214.956 72.427 214.7 72.618L206.133 78.7412L207.526 80.9996C204.411 86.6283 202.665 93.9545 202.665 102.76C202.665 133.932 224.549 171.836 251.545 187.422C260.918 192.833 269.674 194.843 277.113 193.856L278.63 196.316L289.028 188.915L289 188.871Z" fill="#00b8bd"/>
<mask id="mask3_3780_38739" style="mask-type:alpha" maskUnits="userSpaceOnUse" x="202" y="67" width="99" height="130">
<path fill-rule="evenodd" clip-rule="evenodd" d="M289 188.87C296.13 183.178 300.424 173.008 300.424 159.2C300.424 128.028 278.54 90.124 251.545 74.5381C237.334 66.3336 224.54 65.9492 215.608 71.9724L215.606 71.9692L215.478 72.0607C215.216 72.2406 214.956 72.426 214.7 72.617L206.133 78.7402L207.526 80.9986C204.411 86.6274 202.665 93.9535 202.665 102.759C202.665 133.931 224.549 171.835 251.545 187.421C260.918 192.832 269.674 194.842 277.113 193.855L278.63 196.315L289.028 188.914L289 188.87Z" fill="#00b8bd"/>
</mask>
<g mask="url(#mask3_3780_38739)">
<rect width="119.397" height="51.3384" transform="matrix(0.866025 -0.5 2.20305e-08 1 255.406 187.752)" fill="#00b8bd"/>
</g>
<path d="M289 188.871L288.533 188.285L288.009 188.703L288.365 189.27L289 188.871ZM251.545 74.5391L251.92 73.8896L251.92 73.8896L251.545 74.5391ZM215.608 71.9734L214.973 72.3722L215.385 73.0284L216.028 72.5952L215.608 71.9734ZM215.606 71.9702L216.242 71.5713L215.818 70.897L215.17 71.36L215.606 71.9702ZM215.478 72.0617L215.902 72.6807L215.908 72.6763L215.914 72.6719L215.478 72.0617ZM214.7 72.618L215.136 73.2281L215.142 73.2237L215.149 73.2191L214.7 72.618ZM206.133 78.7412L205.697 78.131L205.127 78.5384L205.495 79.1348L206.133 78.7412ZM207.526 80.9996L208.182 81.3627L208.394 80.9791L208.164 80.6059L207.526 80.9996ZM251.545 187.422L251.17 188.071L251.17 188.071L251.545 187.422ZM277.113 193.856L277.751 193.462L277.496 193.048L277.014 193.112L277.113 193.856ZM278.63 196.316L277.991 196.71L278.412 197.392L279.065 196.927L278.63 196.316ZM289.028 188.915L289.463 189.526L290.039 189.115L289.663 188.516L289.028 188.915ZM299.674 159.201C299.674 172.868 295.426 182.782 288.533 188.285L289.468 189.457C296.835 183.577 301.174 173.15 301.174 159.201H299.674ZM251.17 75.1886C264.527 82.9002 276.661 96.1634 285.458 111.4C294.255 126.637 299.674 143.778 299.674 159.201H301.174C301.174 143.453 295.651 126.055 286.757 110.65C277.864 95.2458 265.558 81.7638 251.92 73.8896L251.17 75.1886ZM216.028 72.5952C224.635 66.7903 237.103 67.067 251.17 75.1886L251.92 73.8896C237.565 65.6021 224.444 65.1101 215.189 71.3515L216.028 72.5952ZM216.244 71.5745L216.242 71.5713L214.971 72.369L214.973 72.3722L216.244 71.5745ZM215.17 71.36L215.042 71.4515L215.914 72.6719L216.043 72.5803L215.17 71.36ZM215.149 73.2191C215.396 73.0342 215.648 72.8547 215.902 72.6807L215.055 71.4427C214.784 71.6284 214.516 71.8197 214.252 72.0168L215.149 73.2191ZM214.264 72.0078L205.697 78.131L206.569 79.3513L215.136 73.2281L214.264 72.0078ZM205.495 79.1348L206.887 81.3932L208.164 80.6059L206.771 78.3475L205.495 79.1348ZM203.415 102.76C203.415 94.0495 205.143 86.8553 208.182 81.3627L206.869 80.6365C203.68 86.4014 201.915 93.8595 201.915 102.76H203.415ZM251.92 186.772C238.563 179.061 226.428 165.798 217.631 150.561C208.834 135.324 203.415 118.183 203.415 102.76H201.915C201.915 118.508 207.438 135.906 216.332 151.311C225.226 166.715 237.531 180.197 251.17 188.071L251.92 186.772ZM277.014 193.112C269.784 194.072 261.194 192.127 251.92 186.772L251.17 188.071C260.642 193.54 269.565 195.614 277.211 194.599L277.014 193.112ZM276.474 194.249L277.991 196.71L279.268 195.922L277.751 193.462L276.474 194.249ZM279.065 196.927L289.463 189.526L288.593 188.304L278.195 195.705L279.065 196.927ZM289.663 188.516L289.636 188.472L288.365 189.27L288.392 189.313L289.663 188.516Z" fill="#00b8bd"/>
<circle r="56.4414" transform="matrix(0.866025 0.5 -2.20305e-08 1 242.548 137.393)" fill="white"/>
<mask id="mask4_3780_38739" style="mask-type:alpha" maskUnits="userSpaceOnUse" x="193" y="74" width="99" height="127">
<circle r="56.4414" transform="matrix(0.866025 0.5 -2.20305e-08 1 242.548 137.394)" fill="white"/>
</mask>
<g mask="url(#mask4_3780_38739)">
<rect width="119.397" height="64.0271" transform="matrix(0.866025 0.5 2.20305e-08 -1 190.662 109.35)" fill="white"/>
<path d="M253.074 141.687C253.708 137.162 250.483 132.671 246.073 128.371L247.504 122.572L244.011 119.55L242.619 125.197C241.7 124.403 240.757 123.609 239.82 122.821L241.223 117.137L237.732 114.117L236.301 119.914C235.541 119.275 234.795 118.647 234.071 118.021L234.075 118.002L229.258 113.833L228.329 117.604C228.329 117.604 230.92 119.786 230.866 119.796C232.28 121.021 232.536 122.249 232.493 123.082L230.864 129.689C230.961 129.774 231.087 129.888 231.227 130.033C231.11 129.932 230.986 129.824 230.858 129.714L228.574 138.968C228.401 139.365 227.962 139.856 226.973 139.002C227.008 139.081 224.435 136.805 224.435 136.805L222.701 140.42L227.246 144.353C228.091 145.086 228.92 145.82 229.736 146.532L228.29 152.399L231.779 155.418L233.21 149.615C234.163 150.463 235.088 151.273 235.994 152.055L234.567 157.831L238.06 160.852L239.505 154.998C245.461 159.738 249.939 161.799 251.824 156.667C253.343 152.536 251.748 148.727 248.615 145.034C250.897 145.744 252.616 145.003 253.074 141.687V141.687ZM245.095 150.001C244.015 154.386 236.713 147.463 234.345 145.417L236.263 137.646C238.631 139.696 246.223 145.43 245.095 150.001V150.001ZM246.175 137.631C245.19 141.618 239.112 135.795 237.14 134.089L238.879 127.041C240.851 128.747 247.2 133.472 246.175 137.631V137.631Z" fill="#00b8bd"/>
</g>
<circle r="56.4414" transform="matrix(0.866025 0.5 -2.20305e-08 1 242.548 137.393)" stroke="#00b8bd" stroke-width="1.5"/>
</g>
</svg>
