<svg width="1283" height="479" viewBox="0 0 1283 479" fill="none" xmlns="http://www.w3.org/2000/svg">
<mask id="mask0_3768_36742" style="mask-type:alpha" maskUnits="userSpaceOnUse" x="0" y="0" width="1283" height="479">
<rect width="1283" height="479" fill="#00b8bd"/>
</mask>
<g mask="url(#mask0_3768_36742)">
<path d="M641.001 1321.06C995.186 1321.06 1282.31 1033.87 1282.31 679.6C1282.31 325.329 995.186 38.1357 641.001 38.1357C286.815 38.1357 -0.30957 325.329 -0.30957 679.6C-0.30957 1033.87 286.815 1321.06 641.001 1321.06Z" fill="#060606" stroke="#717172" stroke-miterlimit="10"/>
<path d="M641.75 1321.06C964.146 1321.06 1225.5 1033.87 1225.5 679.6C1225.5 325.329 964.146 38.1357 641.75 38.1357C319.354 38.1357 58 325.329 58 679.6C58 1033.87 319.354 1321.06 641.75 1321.06Z" fill="#060606" stroke="#717172" stroke-miterlimit="10"/>
<path d="M641.5 1321.06C914.053 1321.06 1135 1033.87 1135 679.6C1135 325.329 914.053 38.1357 641.5 38.1357C368.948 38.1357 148 325.329 148 679.6C148 1033.87 368.948 1321.06 641.5 1321.06Z" fill="#060606" stroke="#717172" stroke-miterlimit="10"/>
<path d="M640.75 1321.06C863.735 1321.06 1044.5 1033.87 1044.5 679.6C1044.5 325.329 863.735 38.1357 640.75 38.1357C417.765 38.1357 237 325.329 237 679.6C237 1033.87 417.765 1321.06 640.75 1321.06Z" fill="#060606" stroke="#717172" stroke-miterlimit="10"/>
<path d="M639.5 1321.06C813.194 1321.06 954 1033.87 954 679.6C954 325.329 813.194 38.1357 639.5 38.1357C465.806 38.1357 325 325.329 325 679.6C325 1033.87 465.806 1321.06 639.5 1321.06Z" fill="#060606" stroke="#717172" stroke-miterlimit="10"/>
<path d="M641 1321.06C765.264 1321.06 866 1033.87 866 679.6C866 325.329 765.264 38.1357 641 38.1357C516.736 38.1357 416 325.329 416 679.6C416 1033.87 516.736 1321.06 641 1321.06Z" fill="#060606" stroke="#717172" stroke-miterlimit="10"/>
<path d="M639.233 1321.06C713.92 1321.06 774.466 1033.87 774.466 679.6C774.466 325.329 713.92 38.1357 639.233 38.1357C564.546 38.1357 504 325.329 504 679.6C504 1033.87 564.546 1321.06 639.233 1321.06Z" fill="#060606" stroke="#717172" stroke-miterlimit="10"/>
<path d="M640.188 1321.06C665.144 1321.06 685.375 1033.87 685.375 679.6C685.375 325.329 665.144 38.1357 640.188 38.1357C615.231 38.1357 595 325.329 595 679.6C595 1033.87 615.231 1321.06 640.188 1321.06Z" fill="#060606" stroke="#717172" stroke-miterlimit="10"/>
<circle cx="274.767" cy="414.983" r="10.7329" fill="#00b8bd" stroke="#060606" stroke-width="2"/>
<circle cx="240.267" cy="176.442" r="10.7329" fill="#00b8bd" stroke="#060606" stroke-width="2"/>
<circle cx="745.733" cy="274.729" r="10.7329" fill="#00b8bd" stroke="#060606" stroke-width="2"/>
<circle cx="919.139" cy="383.78" r="10.7329" fill="#00b8bd" stroke="#060606" stroke-width="2"/>
<circle cx="1177.77" cy="429.872" r="10.7329" fill="#00b8bd" stroke="#060606" stroke-width="2"/>
<circle cx="761.733" cy="55.7251" r="10.7329" fill="#00b8bd" stroke="#060606" stroke-width="2"/>
</g>
</svg>
